<?xml version="1.0" encoding="UTF-8"?>
<svg id="Layer_2" data-name="Layer 2" xmlns="http://www.w3.org/2000/svg" viewBox="0 0 110.69 100">
  <g id="Layer_1-2" data-name="Layer 1">
    <path d="M110.66,29.86h0c.02-.38.03-.76.03-1.14,0-15.38-12.98-28.72-28.98-28.72-11.7,0-21.78,7.53-26.35,17.13h0C50.77,7.53,40.69,0,28.99,0,12.98,0,0,13.34,0,28.72c0,.38.01.76.03,1.14h0s-1.64,18.28,18.7,38.23c9.25,9.27,19.59,18.07,36.61,31.91,17.02-13.84,27.36-22.64,36.61-31.91,20.34-19.95,18.7-38.23,18.7-38.23Z" fill="#fff" stroke-width="0"/>
  </g>
</svg>