<?xml version="1.0" encoding="UTF-8"?>
<svg id="Layer_2" data-name="Layer 2" xmlns="http://www.w3.org/2000/svg" viewBox="0 0 2353.9 1419.33">
  <defs>
    <style>
      .cls-1 {
        fill: maroon;
      }

      .cls-1, .cls-2 {
        stroke-width: 0px;
      }

      .cls-2 {
        fill: #1f3a93;
      }
    </style>
  </defs>
  <g id="Layer_1-2" data-name="Layer 1">
    <g>
      <polygon class="cls-1" points="1648.21 931.47 1648.21 1094.93 1648.21 1158.89 1648.21 1419.33 1829.45 1419.33 1829.45 1158.89 1829.45 1094.93 1829.45 931.47 1648.21 931.47"/>
      <polygon class="cls-2" points="1648.21 647.23 1648.21 788.47 1648.21 809.26 1648.21 848.43 1829.45 848.43 1829.45 809.26 1829.45 788.47 1829.45 647.23 1648.21 647.23"/>
      <g>
        <rect class="cls-2" x="2044.04" y="1234.24" width="309.86" height="181.24"/>
        <polygon class="cls-2" points="1867.52 927.63 1867.52 1091.09 1867.52 1155.04 1867.52 1415.49 2048.77 1415.49 2048.77 1155.04 2048.77 1094.93 2048.77 931.47 1867.52 927.63"/>
      </g>
      <polygon class="cls-1" points="1867.52 395.2 1867.52 713.35 1867.52 760.19 1867.52 848.43 2048.77 848.43 2048.77 760.19 2048.77 713.35 2048.77 395.2 1867.52 395.2"/>
      <path class="cls-1" d="M1842.58,484.8h0c.03-.71.06-1.43.06-2.15,0-28.88-24.36-53.91-54.4-53.91-21.97,0-40.88,14.14-49.47,32.16h-.01c-8.59-18.02-27.5-32.16-49.47-32.16-30.05,0-54.4,25.03-54.4,53.91,0,.72.03,1.43.06,2.15h0s-3.07,34.31,35.11,71.76c17.36,17.39,36.77,33.92,68.72,59.89,31.95-25.97,51.36-42.5,68.72-59.89,38.18-37.45,35.11-71.76,35.11-71.76Z"/>
      <g>
        <path class="cls-2" d="M511.7,928.76c-249.03-1.49-437.68-186.23-432.9-420.18,4.13-201.51,157.75-376.39,370.16-395.82,155.63-14.24,412.68-6.7,574.57-6.65.12-25.87.37-51.74.89-77.6.45-22.25-6.52-28.5-28.46-28.38-163.19.95-326.44-1.62-489.58,1.38C245.94,6.3,42.02,189.65,4.84,448.24c-42.05,292.51,195.29,570.29,490.94,574.06,78.23,1,156.52,1.68,234.72-.14,28.09-.65,37.96,4.29,37.27,35.62-2.4,109.5-1.1,219.08-.87,328.63.03,12.19-5.65,28.96,16.93,28.45,80.35-1.79,160.81,4.21,241.09-3.14,9.07-9.49,4.55-21.26,4.59-31.86.38-105.88.33-211.77.08-317.65-.03-10.89,3.05-22.33-3.33-32.67,7.45-13.27,19.94-6.22,29.76-6.3,84.87-.67,169.8,1.1,254.61-1.26,33.48-.93,45.29,6.21,44.35,42.65-2.78,107.15-.62,214.42-1.43,321.64-.15,20.31,3.45,29.68,26.98,29.13,68.09-1.6,136.25-1.12,204.36-.3,18.21.22,25.26-4.23,25.22-24.07-.3-153.89-.48-307.78-.52-461.67-299.67.19-853.8.85-1097.9-.61Z"/>
        <path class="cls-2" d="M997.98,392.95c-67.05-.17-134.14,1.32-201.13-.69-26.43-.79-30.99,8.5-30.72,32.35,1.21,106.16.59,212.33.42,318.5-.02,11.37,4.59,25.34-16.44,24.7-93.75-2.86-188.06,7.49-281.25-5.21-118.93-16.21-206.05-118.42-211.66-241.39-5.23-114.65,70.59-221.66,177.65-250.72,61.13-15.72,433.84-14.08,561.26-13.04,21.96.18,28.77-5.54,28.32-27.75-.32-16.21-.56-32.42-.73-48.63-60.76.04-432.23,3.14-515.71,3.88-189.05,1.69-338.69,139.48-348.33,319.94-9.29,173.9,130.35,330.61,316.74,341.8,124.22,7.46,852.62,4.42,1133.19,4.2,0-143.85.11-287.7.4-431.55.05-23.08-8.26-27.2-28.98-26.89-74.81,1.14-149.65.46-224.48.46-.53,112.8-2.44,225.63-.69,338.4.5,32.12-9.9,38.15-39.16,37.55-85.97-1.76-172.06-2.31-257.99.43-36.65,1.17-29.19-64-29.15-74.64.37-87.53.35-175.07.03-262.6-.04-10.74,3.53-22.21-3.75-32.23-7.38-9.9-18.18-6.86-27.85-6.89Z"/>
      </g>
    </g>
  </g>
</svg>